<?xml version="1.0" standalone="no"?>
<!DOCTYPE svg PUBLIC "-//W3C//DTD SVG 20010904//EN"
 "http://www.w3.org/TR/2001/REC-SVG-20010904/DTD/svg10.dtd">
<svg version="1.0" xmlns="http://www.w3.org/2000/svg"
 width="228.000000pt" height="228.000000pt" viewBox="0 0 228.000000 228.000000"
 preserveAspectRatio="xMidYMid meet">
<metadata>
Created by potrace 1.11, written by Peter Selinger 2001-2013
</metadata>
<g transform="translate(0.000000,228.000000) scale(0.100000,-0.100000)"
fill="#000000" stroke="none">
<path d="M393 2078 c-18 -5 -35 -13 -38 -18 -7 -12 35 -89 59 -110 9 -7 16
-15 16 -19 0 -3 -42 -6 -92 -5 -51 0 -115 -4 -143 -8 -63 -11 -173 -47 -180
-59 -47 -75 534 -450 919 -594 l99 -37 39 18 c22 10 57 38 79 62 l39 45 -7
-34 c-15 -75 -4 -658 13 -702 3 -8 -14 -67 -36 -133 -78 -225 -76 -212 -45
-244 34 -36 109 -69 166 -73 79 -7 188 35 223 85 16 23 18 19 -135 286 -69
119 -85 155 -75 165 6 6 43 55 82 107 203 271 309 491 300 620 -21 290 -21
283 9 338 48 88 140 174 235 220 83 40 220 82 267 82 13 0 23 4 23 9 0 9 -146
7 -220 -4 -25 -4 -87 -20 -139 -37 -91 -29 -97 -29 -155 -17 -177 38 -293 -9
-316 -129 -6 -31 -13 -69 -16 -84 -3 -16 -8 -28 -10 -28 -2 0 -23 12 -46 26
-177 112 -454 234 -585 258 -147 27 -262 32 -330 14z"/>
</g>
</svg>
